<svg xmlns="http://www.w3.org/2000/svg" xmlns:xlink="http://www.w3.org/1999/xlink" width="500" zoomAndPan="magnify" viewBox="0 0 375 374.999991" height="500" preserveAspectRatio="xMidYMid meet" version="1.0"><defs><clipPath id="0ef24e7757"><path d="M 17.058594 287 L 78 287 L 78 347.808594 L 17.058594 347.808594 Z M 17.058594 287 " clip-rule="nonzero"/></clipPath><clipPath id="9e9542480a"><path d="M 17.058594 17.058594 L 78 17.058594 L 78 78 L 17.058594 78 Z M 17.058594 17.058594 " clip-rule="nonzero"/></clipPath><clipPath id="1b5b43ccf0"><path d="M 287 287 L 347.808594 287 L 347.808594 347.808594 L 287 347.808594 Z M 287 287 " clip-rule="nonzero"/></clipPath><clipPath id="6197c3494b"><path d="M 287 17.058594 L 347.808594 17.058594 L 347.808594 78 L 287 78 Z M 287 17.058594 " clip-rule="nonzero"/></clipPath><clipPath id="b7889b3761"><path d="M 17.058594 160 L 347.808594 160 L 347.808594 172 L 17.058594 172 Z M 17.058594 160 " clip-rule="nonzero"/></clipPath></defs><path fill="#007af6" d="M 77.695312 121.796875 L 121.796875 121.796875 L 121.796875 77.695312 L 77.695312 77.695312 Z M 127.308594 132.820312 L 72.183594 132.820312 C 69.140625 132.820312 66.671875 130.351562 66.671875 127.308594 L 66.671875 72.183594 C 66.671875 69.140625 69.140625 66.671875 72.183594 66.671875 L 127.308594 66.671875 C 130.351562 66.671875 132.820312 69.140625 132.820312 72.183594 L 132.820312 127.308594 C 132.820312 130.351562 130.351562 132.820312 127.308594 132.820312 " fill-opacity="1" fill-rule="nonzero"/><path fill="#007af6" d="M 88.722656 88.722656 L 110.773438 88.722656 L 110.773438 110.773438 L 88.722656 110.773438 L 88.722656 88.722656 " fill-opacity="1" fill-rule="nonzero"/><path fill="#007af6" d="M 243.070312 121.796875 L 287.171875 121.796875 L 287.171875 77.695312 L 243.070312 77.695312 Z M 292.683594 132.820312 L 237.558594 132.820312 C 234.515625 132.820312 232.046875 130.351562 232.046875 127.308594 L 232.046875 72.183594 C 232.046875 69.140625 234.515625 66.671875 237.558594 66.671875 L 292.683594 66.671875 C 295.726562 66.671875 298.195312 69.140625 298.195312 72.183594 L 298.195312 127.308594 C 298.195312 130.351562 295.726562 132.820312 292.683594 132.820312 " fill-opacity="1" fill-rule="nonzero"/><path fill="#007af6" d="M 254.097656 88.722656 L 276.148438 88.722656 L 276.148438 110.773438 L 254.097656 110.773438 L 254.097656 88.722656 " fill-opacity="1" fill-rule="nonzero"/><path fill="#007af6" d="M 77.695312 287.171875 L 121.796875 287.171875 L 121.796875 243.070312 L 77.695312 243.070312 Z M 127.308594 298.195312 L 72.183594 298.195312 C 69.140625 298.195312 66.671875 295.726562 66.671875 292.683594 L 66.671875 237.558594 C 66.671875 234.515625 69.140625 232.046875 72.183594 232.046875 L 127.308594 232.046875 C 130.351562 232.046875 132.820312 234.515625 132.820312 237.558594 L 132.820312 292.683594 C 132.820312 295.726562 130.351562 298.195312 127.308594 298.195312 " fill-opacity="1" fill-rule="nonzero"/><path fill="#007af6" d="M 88.722656 254.097656 L 110.773438 254.097656 L 110.773438 276.148438 L 88.722656 276.148438 L 88.722656 254.097656 " fill-opacity="1" fill-rule="nonzero"/><g clip-path="url(#0ef24e7757)"><path fill="#65d3e0" d="M 72.183594 347.808594 L 22.570312 347.808594 C 19.527344 347.808594 17.058594 345.339844 17.058594 342.296875 L 17.058594 292.683594 C 17.058594 289.640625 19.527344 287.171875 22.570312 287.171875 C 25.617188 287.171875 28.085938 289.640625 28.085938 292.683594 L 28.085938 336.785156 L 72.183594 336.785156 C 75.226562 336.785156 77.695312 339.253906 77.695312 342.296875 C 77.695312 345.339844 75.226562 347.808594 72.183594 347.808594 " fill-opacity="1" fill-rule="nonzero"/></g><g clip-path="url(#9e9542480a)"><path fill="#65d3e0" d="M 22.570312 77.695312 C 19.527344 77.695312 17.058594 75.226562 17.058594 72.183594 L 17.058594 22.570312 C 17.058594 19.527344 19.527344 17.058594 22.570312 17.058594 L 72.183594 17.058594 C 75.226562 17.058594 77.695312 19.527344 77.695312 22.570312 C 77.695312 25.617188 75.226562 28.085938 72.183594 28.085938 L 28.085938 28.085938 L 28.085938 72.183594 C 28.085938 75.226562 25.617188 77.695312 22.570312 77.695312 " fill-opacity="1" fill-rule="nonzero"/></g><g clip-path="url(#1b5b43ccf0)"><path fill="#65d3e0" d="M 342.296875 347.808594 L 292.683594 347.808594 C 289.640625 347.808594 287.171875 345.339844 287.171875 342.296875 C 287.171875 339.253906 289.640625 336.785156 292.683594 336.785156 L 336.785156 336.785156 L 336.785156 292.683594 C 336.785156 289.640625 339.253906 287.171875 342.296875 287.171875 C 345.339844 287.171875 347.808594 289.640625 347.808594 292.683594 L 347.808594 342.296875 C 347.808594 345.339844 345.339844 347.808594 342.296875 347.808594 " fill-opacity="1" fill-rule="nonzero"/></g><g clip-path="url(#6197c3494b)"><path fill="#65d3e0" d="M 342.296875 77.695312 C 339.253906 77.695312 336.785156 75.226562 336.785156 72.183594 L 336.785156 28.085938 L 292.683594 28.085938 C 289.640625 28.085938 287.171875 25.617188 287.171875 22.570312 C 287.171875 19.527344 289.640625 17.058594 292.683594 17.058594 L 342.296875 17.058594 C 345.339844 17.058594 347.808594 19.527344 347.808594 22.570312 L 347.808594 72.183594 C 347.808594 75.226562 345.339844 77.695312 342.296875 77.695312 " fill-opacity="1" fill-rule="nonzero"/></g><path fill="#007af6" d="M 204.484375 66.671875 L 204.484375 99.746094 L 171.410156 99.746094 L 171.410156 132.820312 L 160.382812 132.820312 L 160.382812 94.234375 L 143.847656 94.234375 L 143.847656 149.359375 L 198.972656 149.359375 L 198.972656 132.820312 L 187.945312 132.820312 L 187.945312 116.285156 L 204.484375 116.285156 L 204.484375 132.820312 L 221.023438 132.820312 L 221.023438 66.671875 L 204.484375 66.671875 " fill-opacity="1" fill-rule="nonzero"/><path fill="#007af6" d="M 193.460938 66.671875 L 154.871094 66.671875 L 154.871094 83.210938 L 193.460938 83.210938 L 193.460938 66.671875 " fill-opacity="1" fill-rule="nonzero"/><path fill="#007af6" d="M 83.210938 143.847656 L 66.671875 143.847656 L 66.671875 198.972656 L 110.773438 198.972656 L 110.773438 221.023438 L 127.308594 221.023438 L 127.308594 182.433594 L 83.210938 182.433594 L 83.210938 143.847656 " fill-opacity="1" fill-rule="nonzero"/><path fill="#007af6" d="M 265.121094 176.921875 L 243.070312 176.921875 L 243.070312 143.847656 L 226.535156 143.847656 L 226.535156 193.460938 L 248.585938 193.460938 L 248.585938 204.484375 L 226.535156 204.484375 L 226.535156 221.023438 L 265.121094 221.023438 L 265.121094 176.921875 " fill-opacity="1" fill-rule="nonzero"/><path fill="#007af6" d="M 248.585938 259.609375 L 171.410156 259.609375 L 171.410156 237.558594 L 193.460938 237.558594 L 193.460938 248.585938 L 215.507812 248.585938 L 215.507812 209.996094 L 193.460938 209.996094 L 193.460938 221.023438 L 160.382812 221.023438 L 160.382812 198.972656 L 215.507812 198.972656 L 215.507812 182.433594 L 143.847656 182.433594 L 143.847656 237.558594 L 154.871094 237.558594 L 154.871094 276.148438 L 187.945312 276.148438 L 187.945312 298.195312 L 209.996094 298.195312 L 209.996094 276.148438 L 248.585938 276.148438 L 248.585938 259.609375 " fill-opacity="1" fill-rule="nonzero"/><path fill="#007af6" d="M 276.148438 143.847656 L 276.148438 221.023438 L 292.683594 221.023438 L 292.683594 143.847656 L 276.148438 143.847656 " fill-opacity="1" fill-rule="nonzero"/><path fill="#007af6" d="M 226.535156 248.585938 L 276.148438 248.585938 L 276.148438 259.609375 L 259.609375 259.609375 L 259.609375 281.660156 L 237.558594 281.660156 L 237.558594 298.195312 L 292.683594 298.195312 L 292.683594 281.660156 L 276.148438 281.660156 L 276.148438 270.632812 L 292.683594 270.632812 L 292.683594 232.046875 L 226.535156 232.046875 L 226.535156 248.585938 " fill-opacity="1" fill-rule="nonzero"/><path fill="#007af6" d="M 66.671875 221.023438 L 99.746094 221.023438 L 99.746094 209.996094 L 66.671875 209.996094 L 66.671875 221.023438 " fill-opacity="1" fill-rule="nonzero"/><path fill="#007af6" d="M 143.847656 298.195312 L 176.921875 298.195312 L 176.921875 287.171875 L 143.847656 287.171875 L 143.847656 298.195312 " fill-opacity="1" fill-rule="nonzero"/><g clip-path="url(#b7889b3761)"><path fill="#e82f3e" d="M 342.296875 171.410156 L 22.570312 171.410156 C 19.527344 171.410156 17.058594 168.941406 17.058594 165.898438 C 17.058594 162.851562 19.527344 160.382812 22.570312 160.382812 L 342.296875 160.382812 C 345.339844 160.382812 347.808594 162.851562 347.808594 165.898438 C 347.808594 168.941406 345.339844 171.410156 342.296875 171.410156 " fill-opacity="1" fill-rule="nonzero"/></g></svg>